<svg xmlns="http://www.w3.org/2000/svg" xmlns:xlink="http://www.w3.org/1999/xlink" version="1.1" x="0px" y="0px" viewBox="0 0 100 125" enable-background="new 0 0 100 100" xml:space="preserve"><g><rect x="0" y="0" fill="none" width="100" height="100"/><g><g><g><path fill="white" d="M75.3,65.2H2.2C1,65.2,0,64.2,0,63s1-2.2,2.2-2.2h73.2c2.5,0,4.8-1.4,5.8-3.8C81.7,56,83,55.6,84,56      c1.1,0.5,1.6,1.8,1.1,2.9C83.3,62.8,79.6,65.2,75.3,65.2z"/></g><g><path fill="white" d="M73.6,71.9H2.2c-1.2,0-2.2-1-2.2-2.2c0-1.2,1-2.2,2.2-2.2h71.4c3.3,0,6.1-1.7,7.6-4.6c1.5-2.9,1.3-6.2-0.6-8.9      c-1-1.4-2.1-3-3.3-4.5c-3.8-5-8-9.4-12.3-12.9c-3.4-2.7-7.6-4.2-12-4.2H2.2c-1.2,0-2.2-1-2.2-2.2s1-2.2,2.2-2.2h50.8      c5.3,0,10.6,1.8,14.7,5.2c4.6,3.7,9,8.3,13.1,13.6c1.2,1.6,2.3,3.1,3.4,4.6c2.8,3.9,3.2,9.1,0.9,13.4      C82.8,69.2,78.4,71.9,73.6,71.9z"/></g><g><path fill="white" d="M73.1,55c-1.9,0-3.8-0.8-5.2-2.2l-9.3-9.3c-1.8-1.8-2.5-4.3-2-6.7s2.2-4.5,4.5-5.4c1.1-0.4,2.4,0.1,2.8,1.2      c0.4,1.1-0.1,2.4-1.2,2.8c-1,0.4-1.7,1.2-1.9,2.2c-0.2,1,0.1,2,0.8,2.8l9.3,9.3c0.8,0.8,1.9,1.1,3,0.8l3.2-0.9      c1.1-0.3,2.3,0.3,2.7,1.5s-0.3,2.3-1.5,2.7l-3.2,0.9C74.5,54.9,73.8,55,73.1,55z"/></g><g><path fill="white" d="M44,42.1l6.9,8.3H29.5v-8.3H44 M44.4,37.8H28.7c-2,0-3.6,1.6-3.6,3.6v9.8c0,2,1.6,3.6,3.6,3.6h23.8c3.1,0,4.7-3.8,2.6-6      L47,38.9C46.3,38.2,45.4,37.8,44.4,37.8L44.4,37.8z"/></g><g><path fill="white" d="M16.3,42.1v8.3H6v-8.3H16.3 M19,37.8H3.3c-0.9,0-1.6,0.7-1.6,1.6v13.7c0,0.9,0.7,1.6,1.6,1.6H19c0.9,0,1.6-0.7,1.6-1.6      V39.4C20.6,38.5,19.9,37.8,19,37.8L19,37.8z"/></g></g><g><path fill="white" d="M97.8,71.9H71.2c-1.2,0-2.2-1-2.2-2.2c0-1.2,1-2.2,2.2-2.2h26.6c1.2,0,2.2,1,2.2,2.2C100,70.9,99,71.9,97.8,71.9z"/></g></g></g></svg>