<svg width="1063" height="1063" viewBox="0 0 1063 1063" fill="none" xmlns="http://www.w3.org/2000/svg">
<path d="M531.393 1063C824.351 1063 1062.79 824.535 1062.79 531.5C1062.79 238.465 824.369 0 531.393 0C238.436 0 0 238.465 0 531.5C0 824.694 238.24 1063 531.393 1063ZM285.158 484.6L550.936 218.768C576.874 192.825 618.98 192.825 644.917 218.768C670.855 244.712 670.855 286.825 644.917 312.768L492.662 465.053H664.455C723.439 465.053 753.283 536.663 711.355 578.423L445.576 844.255C419.638 870.198 377.533 870.198 351.596 844.255C325.658 818.311 325.658 776.197 351.596 750.255L503.85 597.969H332.057C273.074 597.969 243.229 526.36 285.158 484.6Z" fill="white"/>
</svg>
